<mxfile host="app.diagrams.net" modified="2023-08-09T03:51:54.745Z" agent="Mozilla/5.0 (Windows NT 10.0; Win64; x64) AppleWebKit/537.36 (KHTML, like Gecko) Chrome/115.0.0.0 Safari/537.36" etag="70J-O5veCvaEHnceUzyF" version="21.6.6" type="github">
  <diagram id="C5RBs43oDa-KdzZeNtuy" name="Page-1">
    <mxGraphModel dx="1995" dy="1158" grid="0" gridSize="10" guides="1" tooltips="1" connect="1" arrows="1" fold="1" page="0" pageScale="1" pageWidth="827" pageHeight="1169" math="0" shadow="0">
      <root>
        <mxCell id="WIyWlLk6GJQsqaUBKTNV-0" />
        <mxCell id="WIyWlLk6GJQsqaUBKTNV-1" parent="WIyWlLk6GJQsqaUBKTNV-0" />
        <mxCell id="2IjSCHNoS3Ia3KYCTzP9-19" value="" style="rounded=0;whiteSpace=wrap;html=1;fontSize=18;fontStyle=1" vertex="1" parent="WIyWlLk6GJQsqaUBKTNV-1">
          <mxGeometry x="306" y="535" width="159" height="187" as="geometry" />
        </mxCell>
        <mxCell id="2IjSCHNoS3Ia3KYCTzP9-8" value="" style="edgeStyle=orthogonalEdgeStyle;rounded=0;orthogonalLoop=1;jettySize=auto;html=1;fontSize=18;fontStyle=1" edge="1" parent="WIyWlLk6GJQsqaUBKTNV-1" source="2IjSCHNoS3Ia3KYCTzP9-6" target="2IjSCHNoS3Ia3KYCTzP9-7">
          <mxGeometry relative="1" as="geometry" />
        </mxCell>
        <mxCell id="2IjSCHNoS3Ia3KYCTzP9-6" value="查看日志" style="rounded=1;whiteSpace=wrap;html=1;fontSize=18;glass=0;strokeWidth=1;shadow=0;fontStyle=1" vertex="1" parent="WIyWlLk6GJQsqaUBKTNV-1">
          <mxGeometry x="652.5" y="91" width="120" height="40" as="geometry" />
        </mxCell>
        <mxCell id="2IjSCHNoS3Ia3KYCTzP9-10" value="" style="edgeStyle=orthogonalEdgeStyle;rounded=0;orthogonalLoop=1;jettySize=auto;html=1;fontSize=18;fontStyle=1" edge="1" parent="WIyWlLk6GJQsqaUBKTNV-1" source="2IjSCHNoS3Ia3KYCTzP9-7" target="2IjSCHNoS3Ia3KYCTzP9-9">
          <mxGeometry relative="1" as="geometry" />
        </mxCell>
        <mxCell id="2IjSCHNoS3Ia3KYCTzP9-7" value="方法返回值&lt;br style=&quot;font-size: 18px;&quot;&gt;不符合预期" style="rounded=1;whiteSpace=wrap;html=1;fontSize=18;glass=0;strokeWidth=1;shadow=0;fontStyle=1" vertex="1" parent="WIyWlLk6GJQsqaUBKTNV-1">
          <mxGeometry x="647" y="182" width="131" height="42" as="geometry" />
        </mxCell>
        <mxCell id="2IjSCHNoS3Ia3KYCTzP9-12" value="" style="edgeStyle=orthogonalEdgeStyle;rounded=0;orthogonalLoop=1;jettySize=auto;html=1;fontSize=18;fontStyle=1" edge="1" parent="WIyWlLk6GJQsqaUBKTNV-1" source="2IjSCHNoS3Ia3KYCTzP9-9" target="2IjSCHNoS3Ia3KYCTzP9-11">
          <mxGeometry relative="1" as="geometry" />
        </mxCell>
        <mxCell id="2IjSCHNoS3Ia3KYCTzP9-9" value="debug" style="rounded=1;whiteSpace=wrap;html=1;fontSize=18;glass=0;strokeWidth=1;shadow=0;fontStyle=1" vertex="1" parent="WIyWlLk6GJQsqaUBKTNV-1">
          <mxGeometry x="652.5" y="275" width="120" height="40" as="geometry" />
        </mxCell>
        <mxCell id="2IjSCHNoS3Ia3KYCTzP9-36" style="edgeStyle=orthogonalEdgeStyle;rounded=0;orthogonalLoop=1;jettySize=auto;html=1;entryX=0;entryY=0.54;entryDx=0;entryDy=0;entryPerimeter=0;fontStyle=1" edge="1" parent="WIyWlLk6GJQsqaUBKTNV-1" source="2IjSCHNoS3Ia3KYCTzP9-11" target="2IjSCHNoS3Ia3KYCTzP9-19">
          <mxGeometry relative="1" as="geometry" />
        </mxCell>
        <mxCell id="2IjSCHNoS3Ia3KYCTzP9-11" value="AppRoot不匹配文件绝对前缀导致&lt;br style=&quot;font-size: 18px;&quot;&gt;文件读取失败" style="rounded=1;whiteSpace=wrap;html=1;fontSize=18;glass=0;strokeWidth=1;shadow=0;fontStyle=1" vertex="1" parent="WIyWlLk6GJQsqaUBKTNV-1">
          <mxGeometry x="638" y="365" width="148" height="75" as="geometry" />
        </mxCell>
        <mxCell id="2IjSCHNoS3Ia3KYCTzP9-15" value="" style="edgeStyle=orthogonalEdgeStyle;rounded=0;orthogonalLoop=1;jettySize=auto;html=1;fontSize=18;fontStyle=1" edge="1" parent="WIyWlLk6GJQsqaUBKTNV-1" source="2IjSCHNoS3Ia3KYCTzP9-13" target="2IjSCHNoS3Ia3KYCTzP9-14">
          <mxGeometry relative="1" as="geometry" />
        </mxCell>
        <mxCell id="2IjSCHNoS3Ia3KYCTzP9-13" value="升级相关版本" style="rounded=1;whiteSpace=wrap;html=1;fontSize=18;glass=0;strokeWidth=1;shadow=0;fontStyle=1" vertex="1" parent="WIyWlLk6GJQsqaUBKTNV-1">
          <mxGeometry x="324" y="557" width="120" height="40" as="geometry" />
        </mxCell>
        <mxCell id="2IjSCHNoS3Ia3KYCTzP9-14" value="未解决" style="rounded=1;whiteSpace=wrap;html=1;fontSize=18;glass=0;strokeWidth=1;shadow=0;fontStyle=1" vertex="1" parent="WIyWlLk6GJQsqaUBKTNV-1">
          <mxGeometry x="324" y="650" width="120" height="40" as="geometry" />
        </mxCell>
        <mxCell id="2IjSCHNoS3Ia3KYCTzP9-20" value="" style="rounded=0;whiteSpace=wrap;html=1;fontSize=18;fontStyle=1" vertex="1" parent="WIyWlLk6GJQsqaUBKTNV-1">
          <mxGeometry x="520" y="514" width="159" height="226" as="geometry" />
        </mxCell>
        <mxCell id="2IjSCHNoS3Ia3KYCTzP9-21" value="" style="edgeStyle=orthogonalEdgeStyle;rounded=0;orthogonalLoop=1;jettySize=auto;html=1;fontSize=18;fontStyle=1" edge="1" parent="WIyWlLk6GJQsqaUBKTNV-1" source="2IjSCHNoS3Ia3KYCTzP9-22" target="2IjSCHNoS3Ia3KYCTzP9-23">
          <mxGeometry relative="1" as="geometry" />
        </mxCell>
        <mxCell id="2IjSCHNoS3Ia3KYCTzP9-22" value="尝试指定AppRoot" style="rounded=1;whiteSpace=wrap;html=1;fontSize=18;glass=0;strokeWidth=1;shadow=0;fontStyle=1" vertex="1" parent="WIyWlLk6GJQsqaUBKTNV-1">
          <mxGeometry x="538" y="536" width="120" height="40" as="geometry" />
        </mxCell>
        <mxCell id="2IjSCHNoS3Ia3KYCTzP9-23" value="运行时AppRoot被覆盖导致指定不生效" style="rounded=1;whiteSpace=wrap;html=1;fontSize=18;glass=0;strokeWidth=1;shadow=0;fontStyle=1" vertex="1" parent="WIyWlLk6GJQsqaUBKTNV-1">
          <mxGeometry x="535" y="629" width="127" height="98" as="geometry" />
        </mxCell>
        <mxCell id="2IjSCHNoS3Ia3KYCTzP9-24" value="" style="rounded=0;whiteSpace=wrap;html=1;fontSize=18;fontStyle=1" vertex="1" parent="WIyWlLk6GJQsqaUBKTNV-1">
          <mxGeometry x="731" y="531" width="159" height="187" as="geometry" />
        </mxCell>
        <mxCell id="2IjSCHNoS3Ia3KYCTzP9-25" value="" style="edgeStyle=orthogonalEdgeStyle;rounded=0;orthogonalLoop=1;jettySize=auto;html=1;fontSize=18;fontStyle=1" edge="1" parent="WIyWlLk6GJQsqaUBKTNV-1" source="2IjSCHNoS3Ia3KYCTzP9-26" target="2IjSCHNoS3Ia3KYCTzP9-27">
          <mxGeometry relative="1" as="geometry" />
        </mxCell>
        <mxCell id="2IjSCHNoS3Ia3KYCTzP9-26" value="查看指导文档" style="rounded=1;whiteSpace=wrap;html=1;fontSize=18;glass=0;strokeWidth=1;shadow=0;fontStyle=1" vertex="1" parent="WIyWlLk6GJQsqaUBKTNV-1">
          <mxGeometry x="749" y="553" width="120" height="40" as="geometry" />
        </mxCell>
        <mxCell id="2IjSCHNoS3Ia3KYCTzP9-27" value="无相关描述" style="rounded=1;whiteSpace=wrap;html=1;fontSize=18;glass=0;strokeWidth=1;shadow=0;fontStyle=1" vertex="1" parent="WIyWlLk6GJQsqaUBKTNV-1">
          <mxGeometry x="749" y="646" width="120" height="40" as="geometry" />
        </mxCell>
        <mxCell id="2IjSCHNoS3Ia3KYCTzP9-54" value="" style="edgeStyle=orthogonalEdgeStyle;rounded=0;orthogonalLoop=1;jettySize=auto;html=1;" edge="1" parent="WIyWlLk6GJQsqaUBKTNV-1">
          <mxGeometry relative="1" as="geometry">
            <mxPoint x="1088" y="624.5" as="sourcePoint" />
            <mxPoint x="1253" y="690" as="targetPoint" />
            <Array as="points">
              <mxPoint x="1253" y="625" />
            </Array>
          </mxGeometry>
        </mxCell>
        <mxCell id="2IjSCHNoS3Ia3KYCTzP9-32" value="" style="rounded=0;whiteSpace=wrap;html=1;fontSize=18;fontStyle=1" vertex="1" parent="WIyWlLk6GJQsqaUBKTNV-1">
          <mxGeometry x="938" y="511.5" width="159" height="226" as="geometry" />
        </mxCell>
        <mxCell id="2IjSCHNoS3Ia3KYCTzP9-33" value="" style="edgeStyle=orthogonalEdgeStyle;rounded=0;orthogonalLoop=1;jettySize=auto;html=1;fontSize=18;fontStyle=1" edge="1" parent="WIyWlLk6GJQsqaUBKTNV-1" source="2IjSCHNoS3Ia3KYCTzP9-34" target="2IjSCHNoS3Ia3KYCTzP9-35">
          <mxGeometry relative="1" as="geometry" />
        </mxCell>
        <mxCell id="2IjSCHNoS3Ia3KYCTzP9-34" value="反馈平台" style="rounded=1;whiteSpace=wrap;html=1;fontSize=18;glass=0;strokeWidth=1;shadow=0;fontStyle=1" vertex="1" parent="WIyWlLk6GJQsqaUBKTNV-1">
          <mxGeometry x="956" y="533.5" width="120" height="40" as="geometry" />
        </mxCell>
        <mxCell id="2IjSCHNoS3Ia3KYCTzP9-35" value="平台开发&lt;br&gt;业务自定义AppRoot特性" style="rounded=1;whiteSpace=wrap;html=1;fontSize=18;glass=0;strokeWidth=1;shadow=0;fontStyle=1" vertex="1" parent="WIyWlLk6GJQsqaUBKTNV-1">
          <mxGeometry x="953" y="626.5" width="127" height="98" as="geometry" />
        </mxCell>
        <mxCell id="2IjSCHNoS3Ia3KYCTzP9-38" value="" style="verticalLabelPosition=bottom;verticalAlign=top;html=1;strokeWidth=1;shape=mxgraph.arrows2.arrow;dy=0.6;dx=40;notch=0;fontColor=default;strokeColor=default;fontStyle=1" vertex="1" parent="WIyWlLk6GJQsqaUBKTNV-1">
          <mxGeometry x="452" y="601" width="83" height="33" as="geometry" />
        </mxCell>
        <mxCell id="2IjSCHNoS3Ia3KYCTzP9-39" value="" style="verticalLabelPosition=bottom;verticalAlign=top;html=1;strokeWidth=1;shape=mxgraph.arrows2.arrow;dy=0.6;dx=40;notch=0;fontColor=default;strokeColor=default;fontStyle=1" vertex="1" parent="WIyWlLk6GJQsqaUBKTNV-1">
          <mxGeometry x="666" y="603" width="83" height="33" as="geometry" />
        </mxCell>
        <mxCell id="2IjSCHNoS3Ia3KYCTzP9-40" value="" style="verticalLabelPosition=bottom;verticalAlign=top;html=1;strokeWidth=1;shape=mxgraph.arrows2.arrow;dy=0.6;dx=40;notch=0;fontColor=default;strokeColor=default;fontStyle=1" vertex="1" parent="WIyWlLk6GJQsqaUBKTNV-1">
          <mxGeometry x="877" y="601" width="83" height="33" as="geometry" />
        </mxCell>
        <mxCell id="2IjSCHNoS3Ia3KYCTzP9-52" style="edgeStyle=orthogonalEdgeStyle;rounded=0;orthogonalLoop=1;jettySize=auto;html=1;entryX=0.5;entryY=1;entryDx=0;entryDy=0;" edge="1" parent="WIyWlLk6GJQsqaUBKTNV-1" source="2IjSCHNoS3Ia3KYCTzP9-44" target="2IjSCHNoS3Ia3KYCTzP9-32">
          <mxGeometry relative="1" as="geometry" />
        </mxCell>
        <mxCell id="2IjSCHNoS3Ia3KYCTzP9-44" value="4、反馈平台开发&lt;br style=&quot;font-size: 18px;&quot;&gt;指出不兼容点&lt;br style=&quot;font-size: 18px;&quot;&gt;及修改方案" style="rounded=0;whiteSpace=wrap;html=1;fontSize=18;fontStyle=1;fontColor=#FF3333;" vertex="1" parent="WIyWlLk6GJQsqaUBKTNV-1">
          <mxGeometry x="942" y="796" width="151" height="82" as="geometry" />
        </mxCell>
        <mxCell id="2IjSCHNoS3Ia3KYCTzP9-50" style="edgeStyle=orthogonalEdgeStyle;rounded=0;orthogonalLoop=1;jettySize=auto;html=1;entryX=0.5;entryY=1;entryDx=0;entryDy=0;" edge="1" parent="WIyWlLk6GJQsqaUBKTNV-1" source="2IjSCHNoS3Ia3KYCTzP9-45" target="2IjSCHNoS3Ia3KYCTzP9-20">
          <mxGeometry relative="1" as="geometry" />
        </mxCell>
        <mxCell id="2IjSCHNoS3Ia3KYCTzP9-45" value="2、发现AppRoot&lt;br style=&quot;border-color: var(--border-color); font-size: 18px;&quot;&gt;&lt;span style=&quot;font-size: 18px;&quot;&gt;不匹配尝试指定&lt;/span&gt;" style="rounded=0;whiteSpace=wrap;html=1;fontSize=18;fontStyle=1;fontColor=#FF3333;" vertex="1" parent="WIyWlLk6GJQsqaUBKTNV-1">
          <mxGeometry x="524" y="796" width="151" height="82" as="geometry" />
        </mxCell>
        <mxCell id="2IjSCHNoS3Ia3KYCTzP9-51" style="edgeStyle=orthogonalEdgeStyle;rounded=0;orthogonalLoop=1;jettySize=auto;html=1;entryX=0.5;entryY=1;entryDx=0;entryDy=0;" edge="1" parent="WIyWlLk6GJQsqaUBKTNV-1" source="2IjSCHNoS3Ia3KYCTzP9-46" target="2IjSCHNoS3Ia3KYCTzP9-24">
          <mxGeometry relative="1" as="geometry" />
        </mxCell>
        <mxCell id="2IjSCHNoS3Ia3KYCTzP9-46" value="3、查看指导文档" style="rounded=0;whiteSpace=wrap;html=1;fontSize=18;fontStyle=1;fontColor=#FF3333;" vertex="1" parent="WIyWlLk6GJQsqaUBKTNV-1">
          <mxGeometry x="735" y="796" width="151" height="82" as="geometry" />
        </mxCell>
        <mxCell id="2IjSCHNoS3Ia3KYCTzP9-49" style="edgeStyle=orthogonalEdgeStyle;rounded=0;orthogonalLoop=1;jettySize=auto;html=1;entryX=0.5;entryY=1;entryDx=0;entryDy=0;" edge="1" parent="WIyWlLk6GJQsqaUBKTNV-1" source="2IjSCHNoS3Ia3KYCTzP9-47" target="2IjSCHNoS3Ia3KYCTzP9-19">
          <mxGeometry relative="1" as="geometry" />
        </mxCell>
        <mxCell id="2IjSCHNoS3Ia3KYCTzP9-47" value="1、怀疑版本太旧&lt;br style=&quot;border-color: var(--border-color); font-size: 18px;&quot;&gt;&lt;span style=&quot;font-size: 18px;&quot;&gt;尝试升级&lt;/span&gt;" style="rounded=0;whiteSpace=wrap;html=1;fontSize=18;fontStyle=1;fontColor=#FF3333;" vertex="1" parent="WIyWlLk6GJQsqaUBKTNV-1">
          <mxGeometry x="309.5" y="796" width="151" height="82" as="geometry" />
        </mxCell>
        <mxCell id="2IjSCHNoS3Ia3KYCTzP9-57" style="edgeStyle=orthogonalEdgeStyle;rounded=0;orthogonalLoop=1;jettySize=auto;html=1;entryX=0.992;entryY=0.633;entryDx=0;entryDy=0;entryPerimeter=0;exitX=0.5;exitY=1;exitDx=0;exitDy=0;" edge="1" parent="WIyWlLk6GJQsqaUBKTNV-1" source="2IjSCHNoS3Ia3KYCTzP9-53" target="2IjSCHNoS3Ia3KYCTzP9-56">
          <mxGeometry relative="1" as="geometry" />
        </mxCell>
        <mxCell id="2IjSCHNoS3Ia3KYCTzP9-53" value="平台发布&lt;br&gt;新版本" style="whiteSpace=wrap;html=1;fontSize=18;rounded=1;fontStyle=1;fontColor=#FF3333;" vertex="1" parent="WIyWlLk6GJQsqaUBKTNV-1">
          <mxGeometry x="1193" y="690" width="120" height="60" as="geometry" />
        </mxCell>
        <mxCell id="2IjSCHNoS3Ia3KYCTzP9-59" value="" style="edgeStyle=orthogonalEdgeStyle;rounded=0;orthogonalLoop=1;jettySize=auto;html=1;entryX=0.5;entryY=0;entryDx=0;entryDy=0;" edge="1" parent="WIyWlLk6GJQsqaUBKTNV-1">
          <mxGeometry relative="1" as="geometry">
            <mxPoint x="956" y="958" as="sourcePoint" />
            <mxPoint x="732" y="978" as="targetPoint" />
            <Array as="points">
              <mxPoint x="732" y="958" />
            </Array>
          </mxGeometry>
        </mxCell>
        <mxCell id="2IjSCHNoS3Ia3KYCTzP9-56" value="指定AppRoot" style="whiteSpace=wrap;html=1;fontSize=18;rounded=1;fontStyle=1;" vertex="1" parent="WIyWlLk6GJQsqaUBKTNV-1">
          <mxGeometry x="956" y="927" width="120" height="60" as="geometry" />
        </mxCell>
        <mxCell id="2IjSCHNoS3Ia3KYCTzP9-58" value="解决" style="whiteSpace=wrap;html=1;fontSize=18;rounded=1;fontStyle=1;" vertex="1" parent="WIyWlLk6GJQsqaUBKTNV-1">
          <mxGeometry x="673" y="978" width="120" height="60" as="geometry" />
        </mxCell>
      </root>
    </mxGraphModel>
  </diagram>
</mxfile>
